<mxfile host="app.diagrams.net" modified="2024-07-16T08:04:12.050Z" agent="Mozilla/5.0 (Macintosh; Intel Mac OS X 10_15_7) AppleWebKit/537.36 (KHTML, like Gecko) Chrome/126.0.0.0 Safari/537.36 Edg/126.0.0.0" etag="Cj-pIfaUKPwOmUPEoc4I" version="24.6.5" type="github">
  <diagram name="Page-1" id="13e1069c-82ec-6db2-03f1-153e76fe0fe0">
    <mxGraphModel dx="1471" dy="683" grid="1" gridSize="10" guides="1" tooltips="1" connect="1" arrows="1" fold="1" page="1" pageScale="1" pageWidth="1100" pageHeight="850" background="none" math="0" shadow="0">
      <root>
        <mxCell id="0" />
        <mxCell id="1" parent="0" />
        <mxCell id="2A_WRN6JDc8YqG1GhXGG-4" value="SchedulerWheel" style="shape=umlLifeline;perimeter=lifelinePerimeter;whiteSpace=wrap;html=1;container=1;dropTarget=0;collapsible=0;recursiveResize=0;outlineConnect=0;portConstraint=eastwest;newEdgeStyle={&quot;edgeStyle&quot;:&quot;elbowEdgeStyle&quot;,&quot;elbow&quot;:&quot;vertical&quot;,&quot;curved&quot;:0,&quot;rounded&quot;:0};" vertex="1" parent="1">
          <mxGeometry x="160" y="150" width="100" height="440" as="geometry" />
        </mxCell>
        <mxCell id="2A_WRN6JDc8YqG1GhXGG-6" value="" style="html=1;points=[[0,0,0,0,5],[0,1,0,0,-5],[1,0,0,0,5],[1,1,0,0,-5]];perimeter=orthogonalPerimeter;outlineConnect=0;targetShapes=umlLifeline;portConstraint=eastwest;newEdgeStyle={&quot;curved&quot;:0,&quot;rounded&quot;:0};" vertex="1" parent="2A_WRN6JDc8YqG1GhXGG-4">
          <mxGeometry x="45" y="70" width="10" height="330" as="geometry" />
        </mxCell>
        <mxCell id="2A_WRN6JDc8YqG1GhXGG-5" value="SchedulerWheel" style="shape=umlLifeline;perimeter=lifelinePerimeter;whiteSpace=wrap;html=1;container=1;dropTarget=0;collapsible=0;recursiveResize=0;outlineConnect=0;portConstraint=eastwest;newEdgeStyle={&quot;edgeStyle&quot;:&quot;elbowEdgeStyle&quot;,&quot;elbow&quot;:&quot;vertical&quot;,&quot;curved&quot;:0,&quot;rounded&quot;:0};" vertex="1" parent="1">
          <mxGeometry x="290" y="150" width="100" height="440" as="geometry" />
        </mxCell>
        <mxCell id="2A_WRN6JDc8YqG1GhXGG-7" value="" style="html=1;points=[[0,0,0,0,5],[0,1,0,0,-5],[1,0,0,0,5],[1,1,0,0,-5]];perimeter=orthogonalPerimeter;outlineConnect=0;targetShapes=umlLifeline;portConstraint=eastwest;newEdgeStyle={&quot;curved&quot;:0,&quot;rounded&quot;:0};" vertex="1" parent="2A_WRN6JDc8YqG1GhXGG-5">
          <mxGeometry x="45" y="70" width="10" height="270" as="geometry" />
        </mxCell>
        <mxCell id="2A_WRN6JDc8YqG1GhXGG-9" value="creatWheel" style="html=1;verticalAlign=bottom;endArrow=block;curved=0;rounded=0;" edge="1" parent="2A_WRN6JDc8YqG1GhXGG-5" target="2A_WRN6JDc8YqG1GhXGG-7">
          <mxGeometry x="0.0625" width="80" relative="1" as="geometry">
            <mxPoint x="55" y="80" as="sourcePoint" />
            <mxPoint x="55" y="120" as="targetPoint" />
            <Array as="points">
              <mxPoint x="100" y="80" />
              <mxPoint x="100" y="150" />
            </Array>
            <mxPoint as="offset" />
          </mxGeometry>
        </mxCell>
        <mxCell id="2A_WRN6JDc8YqG1GhXGG-8" value="start()" style="html=1;verticalAlign=bottom;endArrow=block;curved=0;rounded=0;entryX=0;entryY=0;entryDx=0;entryDy=5;entryPerimeter=0;" edge="1" parent="1">
          <mxGeometry width="80" relative="1" as="geometry">
            <mxPoint x="205" y="220" as="sourcePoint" />
            <mxPoint x="335" y="220" as="targetPoint" />
          </mxGeometry>
        </mxCell>
        <mxCell id="2A_WRN6JDc8YqG1GhXGG-10" value="SystemTimer" style="shape=umlLifeline;perimeter=lifelinePerimeter;whiteSpace=wrap;html=1;container=1;dropTarget=0;collapsible=0;recursiveResize=0;outlineConnect=0;portConstraint=eastwest;newEdgeStyle={&quot;edgeStyle&quot;:&quot;elbowEdgeStyle&quot;,&quot;elbow&quot;:&quot;vertical&quot;,&quot;curved&quot;:0,&quot;rounded&quot;:0};" vertex="1" parent="1">
          <mxGeometry x="420" y="150" width="100" height="440" as="geometry" />
        </mxCell>
        <mxCell id="2A_WRN6JDc8YqG1GhXGG-11" value="" style="html=1;points=[[0,0,0,0,5],[0,1,0,0,-5],[1,0,0,0,5],[1,1,0,0,-5]];perimeter=orthogonalPerimeter;outlineConnect=0;targetShapes=umlLifeline;portConstraint=eastwest;newEdgeStyle={&quot;curved&quot;:0,&quot;rounded&quot;:0};" vertex="1" parent="2A_WRN6JDc8YqG1GhXGG-10">
          <mxGeometry x="45" y="180" width="10" height="100" as="geometry" />
        </mxCell>
        <mxCell id="2A_WRN6JDc8YqG1GhXGG-13" value="advanceClock()" style="html=1;verticalAlign=bottom;endArrow=block;curved=0;rounded=0;" edge="1" parent="1" source="2A_WRN6JDc8YqG1GhXGG-7" target="2A_WRN6JDc8YqG1GhXGG-11">
          <mxGeometry width="80" relative="1" as="geometry">
            <mxPoint x="360" y="330" as="sourcePoint" />
            <mxPoint x="430" y="330" as="targetPoint" />
            <Array as="points">
              <mxPoint x="390" y="330" />
            </Array>
          </mxGeometry>
        </mxCell>
        <mxCell id="2A_WRN6JDc8YqG1GhXGG-14" value="延迟队列中取出&lt;br&gt;bucket" style="html=1;verticalAlign=bottom;endArrow=block;curved=0;rounded=0;" edge="1" parent="1" target="2A_WRN6JDc8YqG1GhXGG-11">
          <mxGeometry x="0.2143" y="10" width="80" relative="1" as="geometry">
            <mxPoint x="475" y="340" as="sourcePoint" />
            <mxPoint x="490" y="390" as="targetPoint" />
            <Array as="points">
              <mxPoint x="520" y="340" />
              <mxPoint x="520" y="390" />
            </Array>
            <mxPoint as="offset" />
          </mxGeometry>
        </mxCell>
      </root>
    </mxGraphModel>
  </diagram>
</mxfile>
